<svg width="31.394531" height="31.849365" viewBox="0 0 31.3945 31.8494" fill="none" xmlns="http://www.w3.org/2000/svg" xmlns:xlink="http://www.w3.org/1999/xlink">
	<desc>
			Created with Pixso.
	</desc>
	<defs/>
	<path id="Vector" d="M31.12 16.61C26.19 10.81 21.57 4.32 15.09 0.14C14.59 -0.18 14.06 0.08 13.74 0.49C9.18 6.42 3.36 11.42 0.1 18.28C-0.2 18.93 0.16 19.75 0.95 19.75C2.32 19.74 3.7 19.74 5.08 19.73C4.93 23.62 4.86 27.5 5.43 31.37C5.54 32.11 6.76 31.93 6.72 31.2C6.51 27.03 6.7 22.92 7.01 18.77C7.05 18.25 6.55 17.83 6.06 17.82C4.89 17.8 3.72 17.81 2.54 17.8C5.72 12.01 10.68 7.45 14.79 2.31C20.27 6.07 24.4 11.58 28.62 16.68C27.21 16.88 25.83 16.84 24.34 16.81C23.8 16.8 23.35 17.27 23.35 17.8C23.35 20.31 23.31 22.83 23.36 25.34C23.39 26.3 23.46 27.25 23.5 28.21C23.51 28.66 23.52 29.12 23.5 29.58C23.46 29.78 23.44 29.93 23.46 30.02C23.3 30.33 23.3 30.75 23.54 31.02C23.58 31.07 23.63 31.13 23.67 31.18C23.9 31.44 24.4 31.51 24.68 31.31C25.85 30.48 25.48 28.67 25.43 27.44C25.32 24.56 25.32 21.68 25.32 18.79C27.14 18.81 28.89 18.76 30.69 18.26C31.44 18.05 31.59 17.16 31.12 16.61Z" fill="#FFFFFF" fill-opacity="1.000000" fill-rule="nonzero"/>
	<path id="Vector" d="M21.28 13.15C18.66 10.35 15.82 13.43 14.56 16.2C12.99 14.31 10.53 13.04 8.89 15.76C6.27 20.08 10.75 25.99 14.23 28.15C14.9 28.56 15.43 27.81 15.18 27.24C15.51 27.75 16.41 27.96 16.88 27.29C18.96 24.35 24.76 16.88 21.28 13.15ZM20.28 15.42C20.19 15.37 20.09 15.32 20.01 15.26C19.45 14.91 18.93 14.52 18.41 14.12C19.44 13.67 20.08 14.42 20.28 15.42ZM13.34 17.44C12.75 16.96 12.16 16.48 11.58 16C12.29 16.06 12.88 16.73 13.34 17.44ZM15.12 27.12C15.07 27.06 15.02 26.99 14.95 26.93C14.1 26.3 13.34 25.55 12.67 24.74C12.83 24.87 12.99 25.02 13.15 25.16C13.73 25.63 14.42 26.23 15.18 26.42C15.03 26.67 15.03 26.91 15.12 27.12ZM15.72 25.63C14.16 25.16 12.74 23.95 11.41 22.86C10.92 21.98 10.55 21.04 10.32 20.05C11.21 21.17 12.16 22.23 13.19 23.22C13.96 23.96 14.86 24.84 15.83 25.48C15.79 25.53 15.76 25.59 15.72 25.63ZM16.44 24.63C15.56 23.96 14.57 23.36 13.74 22.67C12.52 21.65 11.42 20.51 10.39 19.32C10.33 19.25 10.26 19.23 10.18 19.24C10.17 19.17 10.15 19.09 10.14 19.01C10.13 18.9 10.12 18.77 10.12 18.63C11.17 19.76 12.3 20.83 13.47 21.86C14.41 22.69 15.48 23.72 16.63 24.37C16.57 24.46 16.51 24.55 16.44 24.63ZM17.2 23.57C16.08 22.63 14.69 21.88 13.57 20.98C12.36 20.02 11.23 18.97 10.14 17.88C10.16 17.65 10.2 17.41 10.25 17.19C11.2 18.43 12.36 19.46 13.56 20.49C14.54 21.33 15.96 22.84 17.32 23.39C17.28 23.45 17.24 23.51 17.2 23.57ZM17.93 22.48C17.59 22.2 17.19 21.98 16.81 21.73C15.8 21.06 14.83 20.32 13.87 19.58C12.73 18.69 11.43 17.78 10.41 16.75C10.52 16.52 10.68 16.32 10.87 16.19C12.94 18.27 15.44 20.74 18.13 22.16C18.06 22.27 18 22.37 17.93 22.48ZM18.68 21.24C17.61 20.52 16.49 19.85 15.43 19.08C15.41 19.07 15.39 19.05 15.36 19.03C15.54 18.92 15.67 18.75 15.72 18.53C15.73 18.44 15.75 18.36 15.76 18.28C16.18 18.66 16.61 19.02 17.06 19.36C17.64 19.79 18.33 20.35 19.05 20.57C18.93 20.8 18.81 21.02 18.68 21.24ZM19.48 19.7C18.96 19.31 18.32 19.04 17.77 18.7C17.14 18.3 16.55 17.84 15.99 17.35C16.07 17.07 16.17 16.79 16.28 16.53C16.87 17.06 17.45 17.59 18.08 18.08C18.53 18.43 19.16 18.96 19.78 18.95C19.69 19.2 19.59 19.45 19.48 19.7ZM20.06 18.12C19.58 17.76 18.92 17.56 18.43 17.23C17.8 16.8 17.22 16.32 16.62 15.86C16.71 15.7 16.81 15.56 16.91 15.42C17.48 15.89 18.05 16.37 18.61 16.87C19.04 17.25 19.52 17.82 20.06 18.09C20.06 18.1 20.06 18.11 20.06 18.12ZM19.09 16.23C18.5 15.8 17.93 15.35 17.35 14.9C17.46 14.8 17.56 14.7 17.67 14.6C18.15 15.05 18.69 15.43 19.21 15.81C19.54 16.05 19.92 16.42 20.33 16.68C20.32 16.81 20.31 16.93 20.29 17.06C19.91 16.75 19.45 16.49 19.09 16.23Z" fill="#FFFFFF" fill-opacity="1.000000" fill-rule="nonzero"/>
</svg>
