<svg width="60.419922" height="60.419434" viewBox="0 0 60.4199 60.4194" fill="none" xmlns="http://www.w3.org/2000/svg" xmlns:xlink="http://www.w3.org/1999/xlink">
	<desc>
			Created with Pixso.
	</desc>
	<defs>
		<filter id="filter_1_94_dd" x="0.000000" y="0.000000" width="60.419922" height="60.419434" filterUnits="userSpaceOnUse" color-interpolation-filters="sRGB">
			<feFlood flood-opacity="0" result="BackgroundImageFix"/>
			<feColorMatrix in="SourceAlpha" type="matrix" values="0 0 0 0 0 0 0 0 0 0 0 0 0 0 0 0 0 0 127 0" result="hardAlpha"/>
			<feOffset dx="0" dy="1.42853"/>
			<feGaussianBlur stdDeviation="4.76178"/>
			<feComposite in2="hardAlpha" operator="out" k2="-1" k3="1"/>
			<feColorMatrix type="matrix" values="0 0 0 0 1 0 0 0 0 1 0 0 0 0 1 0 0 0 0.54 0"/>
			<feBlend mode="normal" in2="BackgroundImageFix" result="effect_dropShadow_1"/>
			<feBlend mode="normal" in="SourceGraphic" in2="effect_dropShadow_1" result="shape"/>
		</filter>
	</defs>
	<g filter="url(#filter_1_94_dd)">
		<path id="Vector" d="M45.49 28.33L33.26 18.52C32.7 18.08 31.94 18.08 31.39 18.53L19.31 28.33C18.61 28.9 18.47 29.97 18.99 30.72C19.51 31.48 20.49 31.63 21.19 31.07L22.81 29.75L22.81 42.99C22.81 43.94 23.51 44.7 24.38 44.7L40.28 44.7C41.15 44.7 41.85 43.94 41.85 42.99L41.85 29.65L43.63 31.07C43.91 31.3 44.24 31.4 44.56 31.4C45.04 31.4 45.51 31.16 45.82 30.71C46.34 29.95 46.19 28.89 45.49 28.33ZM38.71 27.71L38.71 41.29L25.94 41.29L25.94 27.71C25.94 27.55 25.92 27.4 25.88 27.25L32.33 22.02L38.79 27.19C38.74 27.36 38.71 27.53 38.71 27.71Z" fill="#FFFFFF" fill-opacity="1.000000" fill-rule="nonzero"/>
		<path id="Vector" d="M43 17.76C43.44 17.76 43.79 17.38 43.79 16.91L43.79 13.7C43.79 13.23 43.44 12.85 43 12.85L21.04 12.85C20.61 12.85 20.26 13.23 20.26 13.7L20.26 16.91C20.26 17.38 20.61 17.76 21.04 17.76C21.48 17.76 21.83 17.38 21.83 16.91L21.83 14.56L23.85 14.56L23.85 15.59C23.85 15.9 24.09 16.16 24.38 16.16C24.66 16.16 24.9 15.9 24.9 15.59L24.9 14.56L26.88 14.56L26.88 15.59C26.88 15.9 27.11 16.16 27.4 16.16C27.69 16.16 27.93 15.9 27.93 15.59L27.93 14.56L29.91 14.56L29.91 15.59C29.91 15.9 30.14 16.16 30.43 16.16C30.72 16.16 30.96 15.9 30.96 15.59L30.96 14.56L32.94 14.56L32.94 15.59C32.94 15.9 33.17 16.16 33.46 16.16C33.75 16.16 33.98 15.9 33.98 15.59L33.98 14.56L35.97 14.56L35.97 15.59C35.97 15.9 36.2 16.16 36.49 16.16C36.78 16.16 37.01 15.9 37.01 15.59L37.01 14.56L38.99 14.56L38.99 15.59C38.99 15.9 39.23 16.16 39.52 16.16C39.81 16.16 40.04 15.9 40.04 15.59L40.04 14.56L42.22 14.56L42.22 16.91C42.22 17.38 42.57 17.76 43 17.76Z" fill="#FFFFFF" fill-opacity="1.000000" fill-rule="nonzero"/>
		<path id="Vector" d="M18.8 43.65C18.8 43.18 18.44 42.8 18.01 42.8L15.85 42.8L15.85 40.6L16.8 40.6C17.09 40.6 17.32 40.35 17.32 40.03C17.32 39.72 17.09 39.46 16.8 39.46L15.85 39.46L15.85 37.31L16.8 37.31C17.09 37.31 17.32 37.06 17.32 36.74C17.32 36.43 17.09 36.17 16.8 36.17L15.85 36.17L15.85 34.02L16.8 34.02C17.09 34.02 17.32 33.77 17.32 33.45C17.32 33.14 17.09 32.88 16.8 32.88L15.85 32.88L15.85 30.73L16.8 30.73C17.09 30.73 17.32 30.47 17.32 30.16C17.32 29.85 17.09 29.59 16.8 29.59L15.85 29.59L15.85 27.44L16.8 27.44C17.09 27.44 17.32 27.18 17.32 26.87C17.32 26.55 17.09 26.3 16.8 26.3L15.85 26.3L15.85 24.15L16.8 24.15C17.09 24.15 17.32 23.89 17.32 23.58C17.32 23.26 17.09 23.01 16.8 23.01L15.85 23.01L15.85 20.64L18.01 20.64C18.44 20.64 18.8 20.26 18.8 19.79C18.8 19.32 18.44 18.93 18.01 18.93L15.07 18.93C14.63 18.93 14.28 19.32 14.28 19.79L14.28 43.66C14.28 44.13 14.63 44.51 15.07 44.51L18.01 44.51C18.44 44.51 18.8 44.13 18.8 43.65Z" fill="#FFFFFF" fill-opacity="1.000000" fill-rule="nonzero"/>
	</g>
</svg>
