<svg width="31.849609" height="31.398926" viewBox="0 0 31.8496 31.3989" fill="none" xmlns="http://www.w3.org/2000/svg" xmlns:xlink="http://www.w3.org/1999/xlink">
	<desc>
			Created with Pixso.
	</desc>
	<defs/>
	<path id="Vector" d="M7.29 0L1.22 0C0.54 0 0 0.54 0 1.22L0 30.17C0 30.84 0.54 31.39 1.22 31.39L7.29 31.39C7.96 31.39 8.51 30.84 8.51 30.17C8.51 22.93 8.51 1.22 8.51 1.22C8.51 0.54 7.96 0 7.29 0ZM7.29 30.48L1.22 30.48C1.05 30.48 0.91 30.34 0.91 30.17L0.91 1.22C0.91 1.05 1.05 0.91 1.22 0.91L7.29 0.91C7.46 0.91 7.6 1.05 7.6 1.22L7.6 7.28L3.47 7.28C3.22 7.28 3.01 7.48 3.01 7.73C3.01 7.99 3.22 8.19 3.47 8.19L7.6 8.19L7.6 9.79L5.33 9.79C5.08 9.79 4.87 10 4.87 10.25C4.87 10.5 5.08 10.7 5.33 10.7L7.6 10.7L7.6 12.31L3.47 12.31C3.22 12.31 3.01 12.51 3.01 12.76C3.01 13.01 3.22 13.22 3.47 13.22L7.6 13.22L7.6 14.82L5.33 14.82C5.08 14.82 4.87 15.02 4.87 15.28C4.87 15.53 5.08 15.73 5.33 15.73L7.6 15.73L7.6 17.33L3.47 17.33C3.22 17.33 3.01 17.54 3.01 17.79C3.01 18.04 3.22 18.24 3.47 18.24L7.6 18.24L7.6 19.85L5.33 19.85C5.08 19.85 4.87 20.05 4.87 20.3C4.87 20.55 5.08 20.76 5.33 20.76L7.6 20.76L7.6 22.36L3.47 22.36C3.22 22.36 3.01 22.57 3.01 22.82C3.01 23.07 3.22 23.27 3.47 23.27L7.6 23.27L7.6 24.88L5.33 24.88C5.08 24.88 4.87 25.08 4.87 25.33C4.87 25.58 5.08 25.79 5.33 25.79L7.6 25.79L7.6 27.39L3.47 27.39C3.22 27.39 3.01 27.59 3.01 27.85C3.01 28.1 3.22 28.3 3.47 28.3L7.6 28.3L7.6 30.17C7.6 30.34 7.46 30.48 7.29 30.48Z" fill="#FFFFFF" fill-opacity="1.000000" fill-rule="nonzero"/>
	<path id="Vector" d="M4.25 5.22C5.11 5.22 5.81 4.52 5.81 3.66C5.81 2.8 5.11 2.1 4.25 2.1C3.4 2.1 2.7 2.8 2.7 3.66C2.7 4.52 3.4 5.22 4.25 5.22ZM4.25 3.01C4.61 3.01 4.9 3.3 4.9 3.66C4.9 4.02 4.61 4.31 4.25 4.31C3.9 4.31 3.61 4.02 3.61 3.66C3.61 3.3 3.9 3.01 4.25 3.01Z" fill="#FFFFFF" fill-opacity="1.000000" fill-rule="nonzero"/>
	<path id="Vector" d="M16.6 26.35C18.02 26.35 22.27 26.35 22.27 26.35C22.27 26.35 22.28 26.35 22.28 26.35C22.53 26.35 22.73 26.15 22.73 25.89C22.73 25.79 22.69 25.69 22.63 25.61C21.16 23.62 18.44 19.47 16.98 17.47C16.86 17.3 16.66 17.23 16.47 17.29C16.28 17.35 16.15 17.53 16.15 17.73C16.15 17.73 16.15 23.85 16.15 25.89C16.15 26.15 16.35 26.35 16.6 26.35ZM17.06 19.18L21.41 25.44L17.06 25.44L17.06 19.18Z" fill="#FFFFFF" fill-opacity="1.000000" fill-rule="nonzero"/>
	<path id="Vector" d="M31.75 30.66C26.35 23.23 11.21 0.2 11.21 0.2C11.09 0.03 10.89 -0.04 10.7 0.02C10.5 0.08 10.37 0.25 10.37 0.45C10.37 0.45 10.37 23.31 10.37 30.94C10.37 31.19 10.58 31.39 10.83 31.39L31.39 31.39C31.39 31.39 31.39 31.39 31.39 31.39C31.64 31.39 31.84 31.19 31.84 30.94C31.84 30.83 31.81 30.73 31.75 30.66ZM11.28 30.48L11.28 28.29L13.33 28.29C13.58 28.29 13.78 28.09 13.78 27.84C13.78 27.58 13.58 27.38 13.33 27.38L11.28 27.38L11.28 26.23L12.24 26.23C12.49 26.23 12.69 26.03 12.69 25.78C12.69 25.53 12.49 25.32 12.24 25.32L11.28 25.32L11.28 24.17L13.33 24.17C13.58 24.17 13.78 23.97 13.78 23.72C13.78 23.47 13.58 23.26 13.33 23.26L11.28 23.26L11.28 22.12L12.24 22.12C12.49 22.12 12.69 21.91 12.69 21.66C12.69 21.41 12.49 21.21 12.24 21.21L11.28 21.21L11.28 20.06L13.33 20.06C13.58 20.06 13.78 19.85 13.78 19.6C13.78 19.35 13.58 19.15 13.33 19.15L11.28 19.15L11.28 18L12.24 18C12.49 18 12.69 17.8 12.69 17.54C12.69 17.29 12.49 17.09 12.24 17.09L11.28 17.09L11.28 15.94L13.33 15.94C13.58 15.94 13.78 15.74 13.78 15.49C13.78 15.23 13.58 15.03 13.33 15.03L11.28 15.03L11.28 13.88L12.24 13.88C12.49 13.88 12.69 13.68 12.69 13.43C12.69 13.18 12.49 12.97 12.24 12.97L11.28 12.97L11.28 11.82L13.33 11.82C13.58 11.82 13.78 11.62 13.78 11.37C13.78 11.12 13.58 10.91 13.33 10.91L11.28 10.91L11.28 9.77L12.24 9.77C12.49 9.77 12.69 9.56 12.69 9.31C12.69 9.06 12.49 8.86 12.24 8.86L11.28 8.86L11.28 7.71L13.33 7.71C13.58 7.71 13.78 7.5 13.78 7.25C13.78 7 13.58 6.8 13.33 6.8L11.28 6.8L11.28 1.94L30.53 30.48L11.28 30.48L11.28 30.48Z" fill="#FFFFFF" fill-opacity="1.000000" fill-rule="nonzero"/>
</svg>
