<svg width="31.000000" height="31.000000" viewBox="0 0 31 31" fill="none" xmlns="http://www.w3.org/2000/svg" xmlns:xlink="http://www.w3.org/1999/xlink">
	<desc>
			Created with Pixso.
	</desc>
	<defs>
		<filter id="filter_1_259_dd" x="0.000000" y="0.000000" width="31.000000" height="31.000000" filterUnits="userSpaceOnUse" color-interpolation-filters="sRGB">
			<feFlood flood-opacity="0" result="BackgroundImageFix"/>
			<feColorMatrix in="SourceAlpha" type="matrix" values="0 0 0 0 0 0 0 0 0 0 0 0 0 0 0 0 0 0 127 0" result="hardAlpha"/>
			<feOffset dx="0" dy="4"/>
			<feGaussianBlur stdDeviation="1.33333"/>
			<feComposite in2="hardAlpha" operator="out" k2="-1" k3="1"/>
			<feColorMatrix type="matrix" values="0 0 0 0 0 0 0 0 0 0 0 0 0 0 0 0 0 0 0.25 0"/>
			<feBlend mode="normal" in2="BackgroundImageFix" result="effect_dropShadow_1"/>
			<feBlend mode="normal" in="SourceGraphic" in2="effect_dropShadow_1" result="shape"/>
		</filter>
		<clipPath id="clip1_259">
			<rect id="telephone-svgrepo-com 3" width="23.000000" height="23.000000" transform="translate(4.000000 0.000000)" fill="white" fill-opacity="0"/>
		</clipPath>
	</defs>
	<g filter="url(#filter_1_259_dd)">
		<rect id="telephone-svgrepo-com 3" width="23.000000" height="23.000000" transform="translate(4.000000 0.000000)" fill="#FFFFFF" fill-opacity="0"/>
		<g clip-path="url(#clip1_259)">
			<path id="Vector" d="M26.99 5.9C26.87 8.77 25.81 13.11 21.46 17.46C17.11 21.81 12.77 22.87 9.9 22.99C9.8 22.99 9.7 23 9.6 23C9.6 23 9.6 23 9.6 23C7.71 23 5.93 22.26 4.59 20.92C3.8 20.12 3.8 18.83 4.59 18.03L7.93 14.69C8.32 14.3 8.83 14.09 9.38 14.09C9.92 14.09 10.44 14.3 10.82 14.69L12.15 16.02C12.24 16.02 12.35 16.03 12.48 16.03C13.52 16.03 15.57 15.72 17.64 13.64C20.04 11.25 20.07 8.89 20.02 8.16L18.69 6.82C17.89 6.03 17.89 4.73 18.69 3.93L22.03 0.59C22.41 0.21 22.93 0 23.47 0C24.02 0 24.53 0.21 24.92 0.59C26.32 1.99 27.07 3.93 26.99 5.9Z" fill="#FFE848" fill-opacity="1.000000" fill-rule="nonzero"/>
		</g>
	</g>
</svg>
