<svg width="27.000000" height="27.000000" viewBox="0 0 27 27" fill="none" xmlns="http://www.w3.org/2000/svg" xmlns:xlink="http://www.w3.org/1999/xlink">
	<desc>
			Created with Pixso.
	</desc>
	<defs>
		<clipPath id="clip1_270">
			<rect id="vk-svgrepo-com (1) 3" width="27.000000" height="27.000000" fill="white" fill-opacity="0"/>
		</clipPath>
	</defs>
	<rect id="vk-svgrepo-com (1) 3" width="27.000000" height="27.000000" fill="#FFFFFF" fill-opacity="0"/>
	<g clip-path="url(#clip1_270)">
		<path id="Vector" d="M24.03 16.6C24.03 16.6 26.21 18.75 26.75 19.75C26.76 19.77 26.77 19.78 26.77 19.8C27 20.17 27.05 20.46 26.94 20.67C26.76 21.02 26.14 21.2 25.93 21.21L22.08 21.21C21.81 21.21 21.25 21.14 20.57 20.67C20.05 20.31 19.53 19.71 19.03 19.13C18.28 18.26 17.63 17.51 16.98 17.51C16.9 17.51 16.82 17.52 16.74 17.55C16.24 17.7 15.61 18.41 15.61 20.29C15.61 20.88 15.15 21.21 14.82 21.21L13.06 21.21C12.45 21.21 9.32 21 6.54 18.07C3.13 14.48 0.07 7.29 0.04 7.22C-0.15 6.76 0.25 6.5 0.68 6.5L4.58 6.5C5.1 6.5 5.27 6.82 5.39 7.1C5.53 7.43 6.04 8.73 6.88 10.19C8.23 12.57 9.07 13.54 9.73 13.54C9.86 13.54 9.98 13.5 10.09 13.44C10.96 12.96 10.8 9.86 10.75 9.22C10.75 9.1 10.75 7.83 10.31 7.22C9.99 6.79 9.45 6.62 9.12 6.55C9.21 6.43 9.39 6.23 9.63 6.12C10.23 5.82 11.3 5.78 12.37 5.78L12.96 5.78C14.12 5.79 14.42 5.87 14.84 5.97C15.69 6.18 15.71 6.73 15.63 8.6C15.61 9.13 15.59 9.73 15.59 10.44C15.59 10.59 15.58 10.76 15.58 10.93C15.56 11.89 15.52 12.98 16.2 13.42C16.29 13.47 16.39 13.5 16.49 13.5C16.73 13.5 17.43 13.5 19.34 10.23C20.17 8.78 20.82 7.08 20.87 6.95C20.91 6.88 21.02 6.68 21.16 6.6C21.25 6.54 21.36 6.52 21.48 6.52L26.06 6.52C26.56 6.52 26.9 6.6 26.96 6.79C27.07 7.09 26.94 8.03 24.85 10.86C24.5 11.33 24.19 11.74 23.91 12.09C22.02 14.58 22.02 14.71 24.03 16.6Z" fill="#449BFF" fill-opacity="1.000000" fill-rule="nonzero"/>
	</g>
</svg>
