<svg width="23.000000" height="23.000000" viewBox="0 0 23 23" fill="none" xmlns="http://www.w3.org/2000/svg" xmlns:xlink="http://www.w3.org/1999/xlink">
	<desc>
			Created with Pixso.
	</desc>
	<defs>
		<filter id="filter_1_251_dd" x="-3.906250" y="0.000000" width="30.814453" height="31.000000" filterUnits="userSpaceOnUse" color-interpolation-filters="sRGB">
			<feFlood flood-opacity="0" result="BackgroundImageFix"/>
			<feColorMatrix in="SourceAlpha" type="matrix" values="0 0 0 0 0 0 0 0 0 0 0 0 0 0 0 0 0 0 127 0" result="hardAlpha"/>
			<feOffset dx="0" dy="4"/>
			<feGaussianBlur stdDeviation="1.33333"/>
			<feComposite in2="hardAlpha" operator="out" k2="-1" k3="1"/>
			<feColorMatrix type="matrix" values="0 0 0 0 0 0 0 0 0 0 0 0 0 0 0 0 0 0 0.25 0"/>
			<feBlend mode="normal" in2="BackgroundImageFix" result="effect_dropShadow_1"/>
			<feBlend mode="normal" in="SourceGraphic" in2="effect_dropShadow_1" result="shape"/>
		</filter>
		<clipPath id="clip1_250">
			<rect id="whatsapp-svgrepo-com (1) 1" width="23.000000" height="23.000000" fill="white" fill-opacity="0"/>
		</clipPath>
	</defs>
	<rect id="whatsapp-svgrepo-com (1) 1" width="23.000000" height="23.000000" fill="#FFFFFF" fill-opacity="0"/>
	<g clip-path="url(#clip1_250)">
		<g filter="url(#filter_1_251_dd)">
			<path id="Vector" d="M10.94 0.01C4.86 0.3 0.07 5.36 0.09 11.44C0.09 13.29 0.54 15.04 1.33 16.58L0.12 22.46C0.05 22.78 0.34 23.06 0.66 22.98L6.42 21.62C7.9 22.36 9.56 22.78 11.32 22.81C17.53 22.9 22.7 17.97 22.9 11.77C23.1 5.11 17.61 -0.31 10.94 0.01ZM17.81 17.72C16.12 19.4 13.88 20.33 11.5 20.33C10.1 20.33 8.76 20.02 7.52 19.4L6.72 19L3.19 19.84L3.93 16.23L3.53 15.46C2.89 14.2 2.56 12.83 2.56 11.4C2.56 9.02 3.49 6.77 5.18 5.09C6.85 3.41 9.13 2.47 11.5 2.47C13.88 2.47 16.12 3.4 17.81 5.09C19.5 6.77 20.43 9.02 20.43 11.4C20.43 13.77 19.48 16.05 17.81 17.72Z" fill="#7FED6F" fill-opacity="1.000000" fill-rule="nonzero"/>
			<path id="Vector" d="M17.03 13.88L14.82 13.24C14.53 13.16 14.22 13.24 14.01 13.46L13.47 14.01C13.24 14.24 12.89 14.31 12.59 14.19C11.55 13.77 9.35 11.81 8.79 10.84C8.63 10.55 8.65 10.2 8.85 9.94L9.32 9.33C9.51 9.09 9.55 8.77 9.42 8.5L8.5 6.39C8.27 5.89 7.63 5.74 7.21 6.1C6.59 6.62 5.86 7.41 5.77 8.29C5.61 9.84 6.28 11.79 8.79 14.13C11.69 16.84 14.01 17.2 15.52 16.83C16.38 16.63 17.07 15.79 17.5 15.11C17.79 14.65 17.56 14.03 17.03 13.88Z" fill="#7FED6F" fill-opacity="1.000000" fill-rule="nonzero"/>
		</g>
	</g>
</svg>
