<svg width="20.125000" height="16.770996" viewBox="0 0 20.125 16.771" fill="none" xmlns="http://www.w3.org/2000/svg" xmlns:xlink="http://www.w3.org/1999/xlink">
	<desc>
			Created with Pixso.
	</desc>
	<defs/>
	<path id="Vector" d="M18.41 0.14C18.41 0.14 20.27 -0.58 20.11 1.18C20.06 1.91 19.59 4.45 19.23 7.2L17.99 15.34C17.99 15.34 17.89 16.53 16.96 16.74C16.03 16.94 14.63 16.01 14.37 15.8C14.16 15.65 10.49 13.31 9.2 12.17C8.84 11.86 8.42 11.24 9.25 10.51L14.68 5.33C15.3 4.71 15.92 3.25 13.34 5.02L6.1 9.94C6.1 9.94 5.27 10.46 3.72 10L0.36 8.96C0.36 8.96 -0.89 8.18 1.24 7.4C6.41 4.97 12.77 2.48 18.41 0.14Z" fill="#458FFF" fill-opacity="1.000000" fill-rule="nonzero"/>
</svg>
