<svg width="23.000000" height="23.000000" viewBox="0 0 23 23" fill="none" xmlns="http://www.w3.org/2000/svg" xmlns:xlink="http://www.w3.org/1999/xlink">
	<desc>
			Created with Pixso.
	</desc>
	<defs/>
	<path id="Vector" d="M13.71 13.71C11.91 15.58 11.78 17.9 11.62 23C16.37 23 19.65 22.98 21.34 21.33C22.98 19.64 23 16.21 23 11.62C17.91 11.78 15.58 11.91 13.71 13.71L13.71 13.71ZM0 11.62C0 16.21 0.01 19.64 1.66 21.33C3.35 22.98 6.63 23 11.37 23C11.21 17.9 11.08 15.58 9.28 13.71C7.41 11.91 5.09 11.77 0 11.62ZM11.37 0C6.63 0 3.35 0.01 1.66 1.66C0.01 3.35 0 6.78 0 11.37C5.09 11.21 7.41 11.08 9.28 9.28C11.08 7.41 11.22 5.09 11.37 0ZM13.71 9.28C11.91 7.41 11.78 5.09 11.62 0C16.37 0 19.65 0.01 21.34 1.66C22.98 3.35 23 6.78 23 11.37C17.9 11.21 15.58 11.08 13.71 9.28Z" fill="#333333" fill-opacity="1.000000" fill-rule="evenodd"/>
</svg>
